<svg xmlns="http://www.w3.org/2000/svg" width="82" height="66.808" viewBox="0 0 82 66.808">
  <g id="Group_137" data-name="Group 137" transform="translate(-683.281 -3174.251)">
    <path id="Path_216" data-name="Path 216" d="M756.826,3183.3c0,4.447-3.244,8.534-7.247,8.534s-7.248-4.087-7.248-8.534,3.245-8.053,7.248-8.053S756.826,3178.856,756.826,3183.3Z" fill="none" stroke="#AB9257" stroke-linecap="round" stroke-linejoin="round" stroke-width="2"/>
    <path id="Path_217" data-name="Path 217" d="M749.579,3195.1h0a14.7,14.7,0,0,1,14.7,14.7v2.585a2.262,2.262,0,0,1-2.262,2.262H747.237" fill="none" stroke="#AB9257" stroke-linecap="round" stroke-linejoin="round" stroke-width="2"/>
    <line id="Line_123" data-name="Line 123" y2="7.701" transform="translate(757.872 3206.944)" fill="none" stroke="#AB9257" stroke-linecap="round" stroke-linejoin="round" stroke-width="2"/>
    <path id="Path_218" data-name="Path 218" d="M719.323,3202.758c0,5.293-3.862,10.157-8.626,10.157s-8.625-4.864-8.625-10.157,3.862-9.584,8.625-9.584S719.323,3197.465,719.323,3202.758Z" fill="none" stroke="#AB9257" stroke-linecap="round" stroke-linejoin="round" stroke-width="2"/>
    <path id="Path_219" data-name="Path 219" d="M725.5,3240.059H695.892a2.692,2.692,0,0,1-2.692-2.692v-3.076a17.5,17.5,0,0,1,17.5-17.5h0a17.5,17.5,0,0,1,17.5,17.5v3.076A2.692,2.692,0,0,1,725.5,3240.059Z" fill="none" stroke="#AB9257" stroke-linecap="round" stroke-linejoin="round" stroke-width="2"/>
    <line id="Line_124" data-name="Line 124" y2="9.165" transform="translate(700.827 3230.894)" fill="none" stroke="#AB9257" stroke-linecap="round" stroke-linejoin="round" stroke-width="2"/>
    <line id="Line_125" data-name="Line 125" y2="9.165" transform="translate(720.568 3230.894)" fill="none" stroke="#AB9257" stroke-linecap="round" stroke-linejoin="round" stroke-width="2"/>
    <path id="Path_220" data-name="Path 220" d="M746.115,3202.758c0,5.293-3.862,10.157-8.626,10.157s-8.626-4.864-8.626-10.157,3.862-9.584,8.626-9.584S746.115,3197.465,746.115,3202.758Z" fill="none" stroke="#AB9257" stroke-linecap="round" stroke-linejoin="round" stroke-width="2"/>
    <path id="Path_221" data-name="Path 221" d="M728.194,3219.463a17.415,17.415,0,0,1,9.3-2.67h0a17.5,17.5,0,0,1,17.5,17.5v3.076a2.692,2.692,0,0,1-2.692,2.692H732.953" fill="none" stroke="#AB9257" stroke-linecap="round" stroke-linejoin="round" stroke-width="2"/>
    <line id="Line_126" data-name="Line 126" y2="9.165" transform="translate(747.36 3230.894)" fill="none" stroke="#AB9257" stroke-linecap="round" stroke-linejoin="round" stroke-width="2"/>
    <path id="Path_222" data-name="Path 222" d="M691.735,3183.3c0,4.447,3.245,8.534,7.248,8.534s7.247-4.087,7.247-8.534-3.244-8.053-7.247-8.053S691.735,3178.856,691.735,3183.3Z" fill="none" stroke="#AB9257" stroke-linecap="round" stroke-linejoin="round" stroke-width="2"/>
    <path id="Path_223" data-name="Path 223" d="M698.983,3195.1h0a14.7,14.7,0,0,0-14.7,14.7v2.585a2.262,2.262,0,0,0,2.262,2.262h14.781" fill="none" stroke="#AB9257" stroke-linecap="round" stroke-linejoin="round" stroke-width="2"/>
    <line id="Line_127" data-name="Line 127" y2="7.701" transform="translate(690.69 3206.944)" fill="none" stroke="#AB9257" stroke-linecap="round" stroke-linejoin="round" stroke-width="2"/>
    <path id="Path_224" data-name="Path 224" d="M716.846,3183.3c0,4.447,3.245,8.534,7.247,8.534s7.248-4.087,7.248-8.534-3.245-8.053-7.248-8.053S716.846,3178.856,716.846,3183.3Z" fill="none" stroke="#AB9257" stroke-linecap="round" stroke-linejoin="round" stroke-width="2"/>
    <path id="Path_225" data-name="Path 225" d="M726.371,3195.23a14.767,14.767,0,0,0-1.995-.134h0a14.771,14.771,0,0,0-2.412.2" fill="none" stroke="#AB9257" stroke-linecap="round" stroke-linejoin="round" stroke-width="2"/>
  </g>
</svg>
