<svg xmlns="http://www.w3.org/2000/svg" width="35" height="35" viewBox="0 0 35 35"><g transform="translate(-449.637 -1525.177)"><path d="M449.637,1525.177h35v35h-35Z" fill="none"/><path d="M478.8,1531.011H455.47a2.894,2.894,0,0,0-2.9,2.916l-.015,17.5a2.907,2.907,0,0,0,2.917,2.917H478.8a2.907,2.907,0,0,0,2.917-2.917v-17.5A2.907,2.907,0,0,0,478.8,1531.011Zm-1.458,20.416H456.928a1.462,1.462,0,0,1-1.458-1.458v-7.292H478.8v7.292A1.462,1.462,0,0,1,477.345,1551.427Zm1.458-14.583H455.47v-1.458a1.463,1.463,0,0,1,1.458-1.459h20.417a1.463,1.463,0,0,1,1.458,1.459Z" fill="#AB9257"/></g></svg>