<svg xmlns="http://www.w3.org/2000/svg" width="72.762" height="62.27" viewBox="0 0 72.762 62.27">
  <g id="Group_143" data-name="Group 143" transform="translate(-678.607 -2545.228)">
    <path id="Path_237" data-name="Path 237" d="M710.565,2553.426h33.391a6.413,6.413,0,0,1,6.413,6.413v40.246a6.413,6.413,0,0,1-6.413,6.413H686.02a6.413,6.413,0,0,1-6.413-6.413v-40.246a6.413,6.413,0,0,1,6.413-6.413h4.791" fill="none" stroke="#ab9257" stroke-linecap="round" stroke-linejoin="round" stroke-width="2"/>
    <line id="Line_169" data-name="Line 169" x2="37.416" transform="translate(712.954 2565.875)" fill="none" stroke="#ab9257" stroke-linecap="round" stroke-linejoin="round" stroke-width="2"/>
    <line id="Line_170" data-name="Line 170" x2="8.772" transform="translate(679.607 2565.875)" fill="none" stroke="#ab9257" stroke-linecap="round" stroke-linejoin="round" stroke-width="2"/>
    <line id="Line_171" data-name="Line 171" x2="5.012" transform="translate(719.247 2561.671)" fill="none" stroke="#ab9257" stroke-linecap="round" stroke-linejoin="round" stroke-width="2"/>
    <rect id="Rectangle_66" data-name="Rectangle 66" width="3.931" height="3.931" transform="translate(729.173 2557.74)" stroke-width="2" stroke="#ab9257" stroke-linecap="round" stroke-linejoin="round" fill="none"/>
    <line id="Line_172" data-name="Line 172" y1="4.586" x2="4.586" transform="translate(738.772 2557.413)" fill="none" stroke="#ab9257" stroke-linecap="round" stroke-linejoin="round" stroke-width="2"/>
    <line id="Line_173" data-name="Line 173" x1="4.586" y1="4.586" transform="translate(738.772 2557.413)" fill="none" stroke="#ab9257" stroke-linecap="round" stroke-linejoin="round" stroke-width="2"/>
    <path id="Path_238" data-name="Path 238" d="M693.472,2572.462c-2.079,1.962-4.348,4.992-4.292,8.848h3.89" fill="none" stroke="#ab9257" stroke-linecap="round" stroke-linejoin="round" stroke-width="2"/>
    <path id="Path_239" data-name="Path 239" d="M707.631,2572.461c2.08,1.961,4.349,4.993,4.294,8.849h-3.891" fill="none" stroke="#ab9257" stroke-linecap="round" stroke-linejoin="round" stroke-width="2"/>
    <path id="Path_240" data-name="Path 240" d="M707.123,2574.756a30.785,30.785,0,0,0-6.571-28.528,30.786,30.786,0,0,0-6.57,28.528" fill="none" stroke="#ab9257" stroke-linecap="round" stroke-linejoin="round" stroke-width="2"/>
    <line id="Line_174" data-name="Line 174" x2="10.17" transform="translate(695.467 2554.439)" fill="none" stroke="#ab9257" stroke-linecap="round" stroke-linejoin="round" stroke-width="2"/>
    <path id="Path_241" data-name="Path 241" d="M702.388,2559.664a1.836,1.836,0,1,0-1.836,1.836A1.836,1.836,0,0,0,702.388,2559.664Z" fill="none" stroke="#ab9257" stroke-linecap="round" stroke-linejoin="round" stroke-width="2"/>
    <circle id="Ellipse_35" data-name="Ellipse 35" cx="1.836" cy="1.836" r="1.836" transform="translate(698.716 2564.546)" stroke-width="2" stroke="#ab9257" stroke-linecap="round" stroke-linejoin="round" fill="none"/>
    <circle id="Ellipse_36" data-name="Ellipse 36" cx="1.836" cy="1.836" r="1.836" transform="translate(698.716 2571.265)" stroke-width="2" stroke="#ab9257" stroke-linecap="round" stroke-linejoin="round" fill="none"/>
    <line id="Line_175" data-name="Line 175" x2="19.46" transform="translate(721.622 2578.635)" fill="none" stroke="#ab9257" stroke-linecap="round" stroke-linejoin="round" stroke-width="2"/>
    <line id="Line_176" data-name="Line 176" x2="19.46" transform="translate(721.622 2585.711)" fill="none" stroke="#ab9257" stroke-linecap="round" stroke-linejoin="round" stroke-width="2"/>
    <line id="Line_177" data-name="Line 177" x2="9.73" transform="translate(721.622 2592.787)" fill="none" stroke="#ab9257" stroke-linecap="round" stroke-linejoin="round" stroke-width="2"/>
    <path id="Path_242" data-name="Path 242" d="M697.213,2580.452c-2.281,6.365,3.338,10.4,3.338,10.4s5.619-4.031,3.337-10.4" fill="none" stroke="#ab9257" stroke-linecap="round" stroke-linejoin="round" stroke-width="2"/>
    <line id="Line_178" data-name="Line 178" y1="4.173" transform="translate(703.443 2594.739)" fill="none" stroke="#ab9257" stroke-linecap="round" stroke-linejoin="round" stroke-width="2"/>
    <line id="Line_179" data-name="Line 179" y1="13.829" transform="translate(709.224 2587.028)" fill="none" stroke="#ab9257" stroke-linecap="round" stroke-linejoin="round" stroke-width="2"/>
    <line id="Line_180" data-name="Line 180" y1="7.235" transform="translate(697.662 2594.651)" fill="none" stroke="#ab9257" stroke-linecap="round" stroke-linejoin="round" stroke-width="2"/>
    <line id="Line_181" data-name="Line 181" y1="9.139" transform="translate(691.881 2587.091)" fill="none" stroke="#ab9257" stroke-linecap="round" stroke-linejoin="round" stroke-width="2"/>
  </g>
</svg>
