<svg xmlns="http://www.w3.org/2000/svg" width="23.629" height="23.63" viewBox="0 0 23.629 23.63"><g transform="translate(-271.225 -5231.868)"><path d="M281.366,5241.763h2.313v1.182h0a2.612,2.612,0,0,1,2.314-1.182c2.461,0,2.707,1.428,2.707,3.495v4.283h-2.313v-3.889c0-.886.049-1.92-1.182-1.92-1.575,0-1.575.936-1.575,1.92v3.889h-2.314l.05-7.778Z" fill="#AB9257"/><rect width="2.314" height="7.778" transform="translate(277.526 5241.763)" fill="#AB9257"/><circle cx="1.378" cy="1.378" r="1.378" transform="translate(277.28 5237.825)" fill="#AB9257"/><path d="M283.039,5231.868a11.815,11.815,0,1,0,11.815,11.815A11.786,11.786,0,0,0,283.039,5231.868Zm0,21.168a9.353,9.353,0,1,1,9.354-9.353A9.349,9.349,0,0,1,283.039,5253.036Z" fill="#AB9257"/></g></svg>