<svg xmlns="http://www.w3.org/2000/svg" width="35" height="35" viewBox="0 0 35 35"><g transform="translate(-1067.652 -1525.177)"><path d="M1067.652,1525.177h35v35h-35Z" fill="none"/><path d="M1085.137,1528.094a14.584,14.584,0,1,0,14.6,14.583A14.576,14.576,0,0,0,1085.137,1528.094Zm.015,26.25a11.667,11.667,0,1,1,11.666-11.667A11.664,11.664,0,0,1,1085.152,1554.344Zm5.1-13.125a2.188,2.188,0,1,0-2.188-2.187A2.184,2.184,0,0,0,1090.256,1541.219Zm-10.208,0a2.188,2.188,0,1,0-2.188-2.187A2.184,2.184,0,0,0,1080.048,1541.219Zm5.1,9.479a8,8,0,0,0,6.927-4.01.734.734,0,0,0-.642-1.094h-12.571a.738.738,0,0,0-.641,1.094A8,8,0,0,0,1085.152,1550.7Z" fill="#AB9257"/></g></svg>