<svg xmlns="http://www.w3.org/2000/svg" width="82.016" height="79.657" viewBox="0 0 82.016 79.657">
  <g id="Group_142" data-name="Group 142" transform="translate(-673.599 -2361.507)">
    <g id="Group_140" data-name="Group 140">
      <path id="Path_231" data-name="Path 231" d="M675.16,2435.042h78.894a.554.554,0,0,1,.553.553v1.685a2.884,2.884,0,0,1-2.884,2.884H677.491a2.884,2.884,0,0,1-2.884-2.884v-1.685A.553.553,0,0,1,675.16,2435.042Z" fill="none" stroke="#ab9257" stroke-linecap="round" stroke-linejoin="round" stroke-width="2"/>
      <line id="Line_140" data-name="Line 140" x2="13.757" transform="translate(733.172 2395.091)" fill="none" stroke="#ab9257" stroke-linecap="round" stroke-linejoin="round" stroke-width="2"/>
      <line id="Line_141" data-name="Line 141" x2="13.757" transform="translate(682.284 2395.091)" fill="none" stroke="#ab9257" stroke-linecap="round" stroke-linejoin="round" stroke-width="2"/>
      <path id="Path_232" data-name="Path 232" d="M734.273,2387.325h6.8a5.859,5.859,0,0,1,5.859,5.859v33.777l7.273,8.109" fill="none" stroke="#ab9257" stroke-linecap="round" stroke-linejoin="round" stroke-width="2"/>
      <path id="Path_233" data-name="Path 233" d="M675.011,2435.07l7.273-8.109v-33.777a5.859,5.859,0,0,1,5.858-5.859h7.065" fill="none" stroke="#ab9257" stroke-linecap="round" stroke-linejoin="round" stroke-width="2"/>
      <line id="Line_142" data-name="Line 142" x2="64.646" transform="translate(682.284 2426.99)" fill="none" stroke="#ab9257" stroke-linecap="round" stroke-linejoin="round" stroke-width="2"/>
      <line id="Line_143" data-name="Line 143" x2="1.616" transform="translate(713.395 2431.272)" fill="none" stroke="#ab9257" stroke-linecap="round" stroke-linejoin="round" stroke-width="2"/>
      <line id="Line_144" data-name="Line 144" x2="1.616" transform="translate(719.051 2431.272)" fill="none" stroke="#ab9257" stroke-linecap="round" stroke-linejoin="round" stroke-width="2"/>
      <line id="Line_145" data-name="Line 145" x2="1.616" transform="translate(702.081 2431.272)" fill="none" stroke="#ab9257" stroke-linecap="round" stroke-linejoin="round" stroke-width="2"/>
      <line id="Line_146" data-name="Line 146" x2="1.616" transform="translate(707.738 2431.272)" fill="none" stroke="#ab9257" stroke-linecap="round" stroke-linejoin="round" stroke-width="2"/>
      <line id="Line_147" data-name="Line 147" x2="1.616" transform="translate(696.425 2431.272)" fill="none" stroke="#ab9257" stroke-linecap="round" stroke-linejoin="round" stroke-width="2"/>
      <line id="Line_148" data-name="Line 148" x2="1.616" transform="translate(685.112 2431.272)" fill="none" stroke="#ab9257" stroke-linecap="round" stroke-linejoin="round" stroke-width="2"/>
      <line id="Line_149" data-name="Line 149" x2="1.616" transform="translate(690.768 2431.272)" fill="none" stroke="#ab9257" stroke-linecap="round" stroke-linejoin="round" stroke-width="2"/>
      <line id="Line_150" data-name="Line 150" x2="1.616" transform="translate(736.829 2431.272)" fill="none" stroke="#ab9257" stroke-linecap="round" stroke-linejoin="round" stroke-width="2"/>
      <line id="Line_151" data-name="Line 151" x2="1.616" transform="translate(742.485 2431.272)" fill="none" stroke="#ab9257" stroke-linecap="round" stroke-linejoin="round" stroke-width="2"/>
      <line id="Line_152" data-name="Line 152" x2="1.616" transform="translate(731.172 2431.272)" fill="none" stroke="#ab9257" stroke-linecap="round" stroke-linejoin="round" stroke-width="2"/>
      <line id="Line_153" data-name="Line 153" y1="0.957" x2="0.957" transform="translate(681.55 2378.91)" fill="none" stroke="#ab9257" stroke-linecap="round" stroke-linejoin="round" stroke-width="2"/>
      <line id="Line_154" data-name="Line 154" y1="0.957" x2="0.957" transform="translate(686.716 2373.744)" fill="none" stroke="#ab9257" stroke-linecap="round" stroke-linejoin="round" stroke-width="2"/>
      <line id="Line_155" data-name="Line 155" x1="0.957" y1="0.957" transform="translate(686.716 2378.91)" fill="none" stroke="#ab9257" stroke-linecap="round" stroke-linejoin="round" stroke-width="2"/>
      <line id="Line_156" data-name="Line 156" x1="0.957" y1="0.957" transform="translate(681.55 2373.744)" fill="none" stroke="#ab9257" stroke-linecap="round" stroke-linejoin="round" stroke-width="2"/>
      <line id="Line_157" data-name="Line 157" x1="0.263" y1="0.263" transform="translate(698.279 2362.922)" fill="none" stroke="#ab9257" stroke-linecap="round" stroke-linejoin="round" stroke-width="2"/>
      <line id="Line_158" data-name="Line 158" x1="0.263" y1="0.263" transform="translate(702.04 2366.682)" fill="none" stroke="#ab9257" stroke-linecap="round" stroke-linejoin="round" stroke-width="2"/>
      <line id="Line_159" data-name="Line 159" x1="0.263" y2="0.263" transform="translate(698.279 2366.682)" fill="none" stroke="#ab9257" stroke-linecap="round" stroke-linejoin="round" stroke-width="2"/>
      <line id="Line_160" data-name="Line 160" x1="0.263" y2="0.263" transform="translate(702.04 2362.922)" fill="none" stroke="#ab9257" stroke-linecap="round" stroke-linejoin="round" stroke-width="2"/>
      <line id="Line_161" data-name="Line 161" y1="0.957" x2="0.957" transform="translate(727.55 2369.91)" fill="none" stroke="#ab9257" stroke-linecap="round" stroke-linejoin="round" stroke-width="2"/>
      <line id="Line_162" data-name="Line 162" y1="0.957" x2="0.957" transform="translate(732.716 2364.744)" fill="none" stroke="#ab9257" stroke-linecap="round" stroke-linejoin="round" stroke-width="2"/>
      <line id="Line_163" data-name="Line 163" x1="0.957" y1="0.957" transform="translate(732.716 2369.91)" fill="none" stroke="#ab9257" stroke-linecap="round" stroke-linejoin="round" stroke-width="2"/>
      <line id="Line_164" data-name="Line 164" x1="0.957" y1="0.957" transform="translate(727.55 2364.744)" fill="none" stroke="#ab9257" stroke-linecap="round" stroke-linejoin="round" stroke-width="2"/>
      <line id="Line_165" data-name="Line 165" x1="0.263" y1="0.263" transform="translate(742.279 2376.922)" fill="none" stroke="#ab9257" stroke-linecap="round" stroke-linejoin="round" stroke-width="2"/>
      <line id="Line_166" data-name="Line 166" x1="0.263" y1="0.263" transform="translate(746.04 2380.682)" fill="none" stroke="#ab9257" stroke-linecap="round" stroke-linejoin="round" stroke-width="2"/>
      <line id="Line_167" data-name="Line 167" x1="0.263" y2="0.263" transform="translate(742.279 2380.682)" fill="none" stroke="#ab9257" stroke-linecap="round" stroke-linejoin="round" stroke-width="2"/>
      <line id="Line_168" data-name="Line 168" x1="0.263" y2="0.263" transform="translate(746.04 2376.922)" fill="none" stroke="#ab9257" stroke-linecap="round" stroke-linejoin="round" stroke-width="2"/>
    </g>
    <g id="Group_141" data-name="Group 141">
      <path id="Path_234" data-name="Path 234" d="M707.139,2403.794v7.756l7.265-4.617,7.265,4.617v-7.756" fill="none" stroke="#ab9257" stroke-linecap="round" stroke-linejoin="round" stroke-width="2"/>
      <path id="Path_235" data-name="Path 235" d="M716.389,2396.6a8.86,8.86,0,1,1,6.65-10.62A8.86,8.86,0,0,1,716.389,2396.6Z" fill="none" stroke="#ab9257" stroke-linecap="round" stroke-linejoin="round" stroke-width="2"/>
      <path id="Path_236" data-name="Path 236" d="M711.759,2375.622l2.584-3.39,2.595,3.382,3.739-2.046,1,4.145,4.248-.348-.777,4.191,4.023,1.41-2.414,3.513,3.1,2.924-3.634,2.227,1.644,3.933-4.226.556-.1,4.261-4.087-1.21-1.823,3.853-3.241-2.768-3.232,2.779-1.835-3.847-4.083,1.224-.112-4.261-4.228-.543,1.631-3.938-3.641-2.216,3.092-2.934-2.425-3.505,4.018-1.423-.79-4.189,4.249.334.982-4.148Z" fill="none" stroke="#ab9257" stroke-linecap="round" stroke-linejoin="round" stroke-width="2"/>
    </g>
  </g>
</svg>
