<svg xmlns="http://www.w3.org/2000/svg" width="23.616" height="19.809" viewBox="0 0 23.616 19.809"><g transform="translate(-615.003 -7925.977)"><path d="M627.582,7941.5c-.906.882-1.8,1.749-2.693,2.623a1.4,1.4,0,0,1-1.106.452.564.564,0,0,1-.569-.439c-.681-2.114-1.372-4.223-2.05-6.34a.492.492,0,0,0-.371-.369q-2.408-.735-4.806-1.5a2.7,2.7,0,0,1-.706-.326.5.5,0,0,1-.082-.846,3.27,3.27,0,0,1,.934-.585c1.962-.777,3.934-1.53,5.9-2.289l14.993-5.787a1.07,1.07,0,0,1,1.582,1.178,18,18,0,0,1-.371,1.953q-1.627,7.686-3.263,15.37c-.259,1.217-1.113,1.534-2.114.8q-2.514-1.852-5.027-3.713C627.756,7941.621,627.673,7941.565,627.582,7941.5Zm-3.764,1.556.057-.015a1.455,1.455,0,0,0,.03-.143c.107-1.161.221-2.322.315-3.486a.851.851,0,0,1,.3-.617q2.319-2.073,4.621-4.161,2.556-2.3,5.1-4.614a.276.276,0,1,0-.255-.432,2.071,2.071,0,0,0-.562.277q-5.64,3.552-11.28,7.1a.338.338,0,0,0-.171.481c.277.8.529,1.6.791,2.4Q623.295,7941.456,623.818,7943.057Z" fill="#f4f4f4" fill-rule="evenodd"/></g></svg>