<svg xmlns="http://www.w3.org/2000/svg" width="23.315" height="18.948" viewBox="0 0 23.315 18.948"><g transform="translate(-670.911 -7927.758)"><path d="M694.226,7930a9.509,9.509,0,0,1-2.747.753,4.792,4.792,0,0,0,2.1-2.647,9.562,9.562,0,0,1-3.037,1.162,4.788,4.788,0,0,0-8.151,4.363,13.581,13.581,0,0,1-9.86-5,4.791,4.791,0,0,0,1.48,6.386,4.76,4.76,0,0,1-2.166-.6v.061a4.787,4.787,0,0,0,3.838,4.69,4.813,4.813,0,0,1-1.261.168,4.756,4.756,0,0,1-.9-.086,4.791,4.791,0,0,0,4.468,3.322,9.637,9.637,0,0,1-7.081,1.98,13.6,13.6,0,0,0,20.942-11.46c0-.208,0-.414-.013-.62A9.7,9.7,0,0,0,694.226,7930Z" fill="#f4f4f4"/></g></svg>