<?xml version="1.0" encoding="utf-8"?>
<!-- Generator: Adobe Illustrator 25.0.0, SVG Export Plug-In . SVG Version: 6.00 Build 0)  -->
<svg version="1.1" id="Calque_1" xmlns="http://www.w3.org/2000/svg" xmlns:xlink="http://www.w3.org/1999/xlink" x="0px" y="0px"
	 viewBox="0 0 419 419" style="enable-background:new 0 0 419 419;" xml:space="preserve">
<style type="text/css">
	.st0{fill:#AB9257;}
</style>
<path class="st0" d="M389,229.3l-63.9,34.5l-5.9,3.1c0.1,0.9,0.1,1.8,0.1,2.7c0,3.3-2.7,6-6,6c-0.1,0-0.2,0-0.3,0l-44.1-2
	c-12.9-0.6-25.8,0-38.6,1.8c-3.3,0.4-6.3-1.9-6.7-5.1c-0.5-3.3,1.8-6.3,5.1-6.8c13.5-1.9,27.2-2.5,40.8-1.9l37.2,1.7
	c-3-15.2-16.3-26.1-31.8-26.1h-51.7c-10.2,0-20.2-2.3-29.4-6.7l-5.3-2.6c-26.9-13.1-58.8-10-82.8,8L93,247
	c-6.1,5.4-13.3,9.4-21,11.8l25.3,82.8l35.4-22.4c0.1-0.1,0.2-0.1,0.3-0.2c7.7-4.3,16.8-5.6,25.3-3.4l77.5,14.3
	c18.5,3.3,37.5,0.7,54.4-7.6L419,233.9C411.2,225.8,398.9,223.9,389,229.3z"/>
<path class="st0" d="M55.8,372.1c3.6,0,6.5-2.9,6.5-6.4c0-3.6-2.9-6.4-6.4-6.5c-3.6,0-6.5,2.9-6.5,6.4
	C49.3,369.2,52.2,372.1,55.8,372.1z"/>
<path class="st0" d="M326.3,219.8c-9.1-5.3-20.3-5.4-29.5-0.1l-0.1,0.1l-11.9,6.5c5.8,1.3,11.2,3.8,16,7.3L326.3,219.8z"/>
<path class="st0" d="M319.4,253.1l50.7-27.4c-5.6-5.2-14.3-8-21.2-4.6l-39.1,21.1c2.9,3.7,5.2,7.9,6.8,12.3L319.4,253.1z"/>
<path class="st0" d="M0,231.3l19.3,158.1h79.9L51,231.3H0z M74.2,365.7c0,10.2-8.3,18.4-18.4,18.4s-18.4-8.3-18.4-18.4
	c0-10.2,8.3-18.4,18.4-18.4C65.9,347.2,74.2,355.5,74.2,365.7z"/>
<path class="st0" d="M254.3,187.1c0.5,0,1,0,1.5-0.1l86.1-10.8c3.3-0.4,6.3-2.2,8.2-4.9c2-2.7,2.7-6.1,2.1-9.3
	c-2.1-11.3-5.7-33-5.7-51.8c0-20,4.1-46.1,5.9-56.4c0.6-3.2-0.2-6.6-2.2-9.2c-2-2.6-4.9-4.4-8.2-4.8l-86.2-10.8
	c-6.5-0.8-12.4,3.7-13.4,10.1c-2.2,14.6-3.8,29.5-4.6,44.4H86.6c-2,0-3.9,1-5,2.7l-12.3,18.4c-1.3,2-1.3,4.6,0,6.7l12.3,18.4
	c1.1,1.7,3,2.7,5,2.7H102l9.1,11.3c1.1,1.4,2.8,2.2,4.6,2.2c1.8,0,3.5-0.7,4.6-2.1l7.2-8.5l8.4,8.7c1.2,1.3,3,1.9,4.7,1.8
	c1.8-0.1,3.4-1,4.4-2.5l7.9-11h84.8c0.8,14.9,2.3,29.8,4.6,44.4C243.3,182.8,248.3,187.1,254.3,187.1z M277.4,106.3L289.6,67
	c0.9-2.8,3.6-4.5,6.5-4.2l19.7,2.5c3.2,0.4,5.5,3.2,5.2,6.4L319.9,89c-0.8,12.7-0.8,25.4,0,38.1l1.2,17.4c0.2,3.2-2.1,6-5.2,6.4
	l-19.7,2.5c-0.2,0-0.5,0-0.7,0c-2.6,0-4.9-1.7-5.7-4.2l-12.3-39.3C277,108.7,277,107.4,277.4,106.3z"/>
<path class="st0" d="M308.7,139.7l-0.8-11.7c-0.9-13.2-0.9-26.5,0-39.7l0.8-11.7l-9.1-1.1l-10.2,32.7l10.2,32.7L308.7,139.7z"/>
</svg>
