<?xml version="1.0" encoding="utf-8"?>
<!-- Generator: Adobe Illustrator 25.0.0, SVG Export Plug-In . SVG Version: 6.00 Build 0)  -->
<svg version="1.1" id="Calque_1" xmlns="http://www.w3.org/2000/svg" xmlns:xlink="http://www.w3.org/1999/xlink" x="0px" y="0px"
	 viewBox="0 0 512 512" style="enable-background:new 0 0 512 512;" xml:space="preserve">
<style type="text/css">
	.st0{fill:#AB9257;}
</style>
<g id="smartphone-money-pay_in-pay_out-security">
	<path class="st0" d="M144,144c-61.9,0-112,50.1-112,112s50.1,112,112,112s112-50.1,112-112C255.9,194.2,205.8,144.1,144,144z
		 M87.4,312.6l-11.3,11.3c-37.4-37.5-37.4-98.2,0-135.8l11.3,11.3C56.2,230.7,56.2,281.3,87.4,312.6z M144,248
		c17.6,0,32,14.3,32,31.9c0,14.6-9.8,27.3-24,31V328h-16v-17.1c-14.1-3.6-23.9-16.3-24-30.9h16c0,8.8,7.2,16,16,16s16-7.2,16-16
		s-7.2-16-16-16c-17.6,0-32-14.3-32-31.9c0-14.6,9.8-27.3,24-31V184h16v17.1c14.1,3.6,23.9,16.3,24,30.9h-16c0-8.8-7.2-16-16-16
		s-16,7.2-16,16S135.2,248,144,248z M211.9,323.9l-11.3-11.3c31.2-31.3,31.2-81.9,0-113.1l11.3-11.3
		C249.3,225.6,249.3,286.4,211.9,323.9z"/>
	<path class="st0" d="M433.8,48l4-16H282.2l4,16H433.8z"/>
	<path class="st0" d="M312,221.3v22.8c0,10.6,4.2,20.8,11.7,28.3l36.3,36.3l36.3-36.3c7.5-7.5,11.7-17.7,11.7-28.3v-22.8l-48-20.6
		L312,221.3z M397.7,237.7l-32,32c-3.1,3.1-8.2,3.1-11.3,0l-16-16l11.3-11.3l10.3,10.3l26.3-26.3L397.7,237.7z"/>
	<path class="st0" d="M472,32h-17.8l-6.5,25.9c-0.9,3.6-4.1,6.1-7.8,6.1H280c-3.7,0-6.9-2.5-7.8-6.1L265.8,32H248c-4.4,0-8,3.6-8,8
		l0,0v131.6c42.7,48.2,42.7,120.6,0,168.8V472c0,4.4,3.6,8,8,8h224c4.4,0,8-3.6,8-8V40C480,35.6,476.4,32,472,32L472,32z M424,244.1
		c0,14.9-5.9,29.1-16.4,39.6l-41.9,41.9c-3.1,3.1-8.2,3.1-11.3,0l-41.9-41.9C301.9,273.2,296,259,296,244.1V216
		c0-3.2,1.9-6.1,4.8-7.4l56-24c2-0.9,4.3-0.9,6.3,0l56,24c2.9,1.3,4.8,4.2,4.8,7.4L424,244.1z"/>
	<path class="st0" d="M88,80h112V48H88V24L40,64l48,40V80z"/>
	<path class="st0" d="M152,432H40v32h112v24l48-40l-48-40V432z"/>
</g>
</svg>
