<?xml version="1.0" encoding="utf-8"?>
<!-- Generator: Adobe Illustrator 25.0.0, SVG Export Plug-In . SVG Version: 6.00 Build 0)  -->
<svg version="1.1" id="Layer_1" xmlns="http://www.w3.org/2000/svg" xmlns:xlink="http://www.w3.org/1999/xlink" x="0px" y="0px"
	 viewBox="0 0 512 512" style="enable-background:new 0 0 512 512;" xml:space="preserve">
<style type="text/css">
	.st0{fill:#AB9257;}
</style>
<path class="st0" d="M347.3,81.6c0-55.7-202-55.7-202,0C145.3,137.3,347.3,137.3,347.3,81.6z"/>
<path class="st0" d="M395.9,224c-3.7-13.1-13-25.4-27.3-35.9v-9.4c19-14,29.1-30.7,29.1-48.6V81.6c0-74.2-163.2-107.1-256.4-59.2
	c-29.9,15.3-46.3,36.4-46.3,59.2v28.9c-19,14-29.1,30.7-29.1,48.6v48.4c0,17.9,10,34.6,29.1,48.6c0,30.8-1.6,39,6.8,53.6
	c-4.5,7.9-6.8,16.2-6.8,24.7v95.9c0,22.8,16.5,43.8,46.3,59.2c92.8,47.7,256.4,15.3,256.4-59.2v-36.7c30.9-15.3,48.4-37,48.4-60.2
	v-48.4C446.1,261.4,427.9,239.3,395.9,224L395.9,224z M350.6,344.6c24.3-12.3,47.1-32.6,47.1-59.6V243
	C458.6,277.8,428.7,326.9,350.6,344.6z M112.8,324c8.3,8.3,19.2,15.8,32.4,22.1c5.4,19.4,23.2,36.4,49,48.7
	C139.1,383.3,102.1,354.6,112.8,324z M246.3,302.3c-39.6,0-76.6-8.8-101.9-22.9c96.1,27.9,222.2-6,224.2-70.3
	C412.2,253.3,340.8,302.3,246.3,302.3z M246.3,16c73.4,0,135.4,30.1,135.4,65.6c0,35.6-62,65.6-135.4,65.6
	c-73.4,0-135.4-30.1-135.4-65.6C110.9,46.1,172.9,16,246.3,16z M95,131.5c2,64.1,127.7,98.4,224.2,70.3
	c-25.3,14.1-62.3,22.9-101.9,22.9C122.6,224.8,51.3,175.6,95,131.5L95,131.5z"/>
</svg>
